<?xml version="1.0" encoding="UTF-8" standalone="no"?>
<!-- Created with Inkscape (http://www.inkscape.org/) -->

<svg
   xmlns:dc="http://purl.org/dc/elements/1.1/"
   xmlns:cc="http://creativecommons.org/ns#"
   xmlns:rdf="http://www.w3.org/1999/02/22-rdf-syntax-ns#"
   xmlns:svg="http://www.w3.org/2000/svg"
   xmlns="http://www.w3.org/2000/svg"
   xmlns:sodipodi="http://sodipodi.sourceforge.net/DTD/sodipodi-0.dtd"
   xmlns:inkscape="http://www.inkscape.org/namespaces/inkscape"
   version="1.1"
   id="svg815"
   width="128"
   height="128"
   viewBox="0 0 128 128"
   sodipodi:docname="pbn.svg"
   inkscape:version="0.92.3 (2405546, 2018-03-11)">
  <metadata
     id="metadata821">
    <rdf:RDF>
      <cc:Work
         rdf:about="">
        <dc:format>image/svg+xml</dc:format>
        <dc:type
           rdf:resource="http://purl.org/dc/dcmitype/StillImage" />
        <dc:title></dc:title>
      </cc:Work>
    </rdf:RDF>
  </metadata>
  <defs
     id="defs819" />
  <sodipodi:namedview
     pagecolor="#ffffff"
     bordercolor="#666666"
     borderopacity="1"
     objecttolerance="10"
     gridtolerance="10"
     guidetolerance="10"
     inkscape:pageopacity="0"
     inkscape:pageshadow="2"
     inkscape:window-width="1366"
     inkscape:window-height="705"
     id="namedview817"
     showgrid="false"
     inkscape:zoom="4.203125"
     inkscape:cx="25.33829"
     inkscape:cy="64"
     inkscape:window-x="-8"
     inkscape:window-y="-8"
     inkscape:window-maximized="1"
     inkscape:current-layer="svg815"
     inkscape:pagecheckerboard="true" />
  <path
     style="fill:#fffafa;fill-opacity:1"
     d="m 45.580273,124.65349 c -3.80585,-1.19452 -7.08824,-2.67739 -7.294198,-3.29527 -0.235787,-0.70736 6.215553,-2.68929 17.419727,-5.35155 9.786809,-2.32549 25.974387,-6.20332 35.972395,-8.61741 C 101.67621,104.97517 110.33871,103 110.9282,103 c 4.11804,0 -3.72233,8.43603 -13.877607,14.93194 -9.873015,6.31536 -20.244394,9.08728 -33.602197,8.98074 -8.25855,-0.0659 -12.648462,-0.62092 -17.868123,-2.25919 z M 41.865189,89.306643 C 38.107812,84.919516 9,35.269919 9,33.248036 9,27.601416 13.68721,32.147158 37.873411,61.25 45.076679,69.917569 49.1147,73.995138 50.484712,73.984814 51.59312,73.976462 57.45,73.056713 63.5,71.940927 c 23.700247,-4.370976 61.06442,-10.936731 62.25,-10.938773 2.96335,-0.0051 -0.10151,23.749358 -3.50309,27.150933 -0.62829,0.628295 -3.62449,-0.639617 -8.48571,-3.590933 C 109.62824,82.052969 105.58996,80 104.78726,80 c -1.44549,0 -55.39742,9.651118 -59.331011,10.613347 -1.23074,0.301061 -2.659276,-0.21875 -3.59106,-1.306704 z M 112.59305,51.802438 98.686105,45.818088 77.593052,49.922203 C 65.991874,52.179467 55.375,54.01527 54,54.001765 51.371084,53.975945 16.293851,27.929339 15.26011,25.235452 c -0.297441,-0.775118 0.591048,-2.541155 1.97442,-3.924527 2.992547,-2.992547 1.405546,-3.651582 21.72075,9.019997 l 14.45528,9.016461 8.04472,-1.171842 c 4.424596,-0.644513 18.299963,-3.026361 30.834149,-5.292996 26.198401,-4.737619 24.583041,-5.0147 29.071361,4.986593 2.69293,6.00065 6.01126,17.593005 5.45812,19.067533 -0.1754,0.467564 -6.57704,-1.842841 -14.22586,-5.134233 z M 39.25,22.284937 C 30.575177,18.916396 25,16.217236 25,15.385957 25,13.087275 35.437386,6.9340479 44.505199,3.8869163 51.837935,1.4228371 54.656147,1 63.746514,1 c 13.865063,0 23.989822,2.9291951 34.558933,9.998248 8.187223,5.475948 15.825043,13.124922 13.784853,13.804985 -0.68908,0.229692 -4.94356,-0.356892 -9.4544,-1.303521 C 93.7665,21.638416 93.396488,21.666171 69.5,25.985248 63.45,27.078732 57.375,27.938523 56,27.895895 54.625,27.853267 47.0875,25.328336 39.25,22.284937 Z"
     id="path843"
     inkscape:connector-curvature="0" />
</svg>
